<?xml version="1.0" standalone="no"?>
<!DOCTYPE svg PUBLIC "-//W3C//DTD SVG 20010904//EN"
 "http://www.w3.org/TR/2001/REC-SVG-20010904/DTD/svg10.dtd">
<svg version="1.0" xmlns="http://www.w3.org/2000/svg"
 width="703.000000pt" height="493.000000pt" viewBox="0 0 703.000000 493.000000"
 preserveAspectRatio="xMidYMid meet">

<g transform="translate(0.000000,493.000000) scale(0.100000,-0.100000)"
fill="#6f5d56" stroke="none">
<path d="M3377 3942 c-22 -24 -22 -60 -1 -84 16 -16 15 -22 -5 -85 -39 -124
-73 -140 -126 -62 -26 36 -27 42 -15 65 25 46 -22 90 -68 63 -32 -19 -33 -55
0 -80 18 -14 20 -23 15 -65 -8 -77 -48 -95 -94 -43 -16 18 -33 37 -40 44 -6 7
-13 25 -15 41 -3 26 -7 29 -38 29 -28 0 -36 -4 -38 -22 -2 -12 5 -27 16 -35
28 -20 39 -104 16 -129 -9 -10 -25 -19 -34 -19 -20 0 -70 51 -70 72 0 22 -25
40 -52 36 -18 -2 -23 -9 -23 -33 0 -25 4 -31 26 -33 21 -2 31 -15 52 -60 15
-32 27 -63 27 -69 0 -6 15 -36 33 -66 30 -53 36 -57 108 -82 42 -14 113 -29
160 -34 l84 -7 -39 -17 c-56 -25 -187 -23 -245 3 -24 11 -49 20 -55 20 -7 0
-22 9 -34 20 -12 11 -29 20 -39 20 -10 0 -58 -38 -108 -85 -49 -47 -93 -85
-97 -85 -4 0 -8 -7 -8 -15 0 -8 -34 -47 -75 -87 -77 -74 -87 -95 -59 -123 18
-17 18 -17 -11 -33 -15 -8 -19 -19 -16 -50 2 -34 -3 -45 -34 -76 -63 -63 -121
-86 -221 -86 -99 0 -143 19 -164 70 -20 48 -12 53 72 51 46 -1 86 3 100 10 13
7 44 11 71 10 26 -1 62 3 81 9 40 13 57 40 25 40 -11 0 -17 4 -14 10 4 7 -3 7
-20 0 -43 -16 -125 -13 -132 6 -4 11 -8 12 -13 4 -5 -8 -20 -4 -52 13 -25 13
-61 30 -79 38 -33 13 -32 14 51 17 53 2 86 -1 88 -8 5 -14 89 48 95 70 6 24
-27 53 -80 70 -25 8 -45 21 -49 32 -7 23 -43 38 -90 38 -29 0 -34 3 -34 24 0
50 -8 56 -74 56 -35 0 -98 -9 -142 -21 -43 -11 -119 -23 -168 -26 l-89 -6 26
-23 26 -23 -43 -16 c-49 -19 -118 -80 -141 -126 l-16 -30 31 16 c42 22 50 11
17 -23 -27 -28 -47 -79 -47 -117 1 -18 1 -19 11 -2 16 27 29 20 29 -15 1 -18
7 -44 15 -58 l14 -25 2 30 c0 17 7 -5 15 -48 8 -43 23 -95 34 -115 l19 -37 1
43 c0 26 4 41 10 37 6 -3 10 -19 10 -34 0 -18 12 -39 39 -65 l40 -39 -14 39
c-16 47 -12 55 14 25 36 -42 45 -87 27 -136 -14 -35 -26 -47 -61 -64 -25 -12
-52 -21 -60 -21 -8 0 -15 -4 -15 -10 0 -5 12 -10 27 -10 39 0 19 -13 -40 -26
-44 -10 -47 -12 -19 -13 48 -2 39 -21 -10 -22 -36 -1 -39 -2 -18 -9 24 -7 24
-8 -15 -25 -22 -9 -64 -28 -92 -42 -29 -13 -63 -23 -75 -21 -21 3 -23 8 -22
53 1 28 5 61 9 75 l8 25 -23 -20 -23 -20 7 87 c4 47 11 101 16 120 6 18 9 55
9 83 -1 27 -3 41 -6 30 -9 -38 -20 -36 -27 6 -4 24 -11 48 -15 54 -5 5 -14 27
-21 48 -10 32 -20 42 -57 58 -25 10 -66 19 -91 19 -53 0 -148 -25 -119 -31 13
-3 5 -13 -34 -39 -28 -19 -62 -41 -75 -48 -13 -7 -31 -26 -39 -42 -17 -34 -19
-44 -5 -35 6 4 7 -11 4 -42 l-7 -48 32 29 c17 16 34 26 38 23 12 -12 43 25 43
53 0 14 7 35 15 46 14 18 14 18 15 -6 0 -24 1 -24 14 5 8 17 16 38 20 47 8 27
67 58 110 58 30 0 45 -7 73 -35 38 -38 39 -57 1 -31 -31 22 -41 20 -26 -4 7
-11 20 -20 30 -20 9 0 26 -16 38 -35 21 -34 22 -44 19 -244 -3 -175 -6 -207
-18 -198 -7 6 -17 20 -22 32 -7 15 -8 12 -4 -13 3 -19 14 -46 25 -62 25 -36
25 -39 -2 -33 -18 4 -16 1 9 -15 17 -12 47 -24 67 -27 34 -7 35 -7 42 -72 10
-95 -8 -166 -50 -198 -46 -35 -93 -33 -141 5 -44 35 -47 36 -68 12 -15 -17
-15 -23 3 -82 11 -36 20 -74 20 -85 0 -23 62 -149 86 -176 21 -23 79 -26 87
-4 5 12 10 12 33 0 41 -21 74 -3 74 43 0 16 -6 22 -20 22 -30 0 -70 47 -70 83
0 81 90 137 219 137 54 0 75 5 101 23 59 40 75 71 74 145 0 37 -4 78 -8 92 -6
20 -3 17 17 -11 14 -20 29 -49 32 -65 28 -133 50 -174 105 -199 35 -16 40 -22
40 -50 0 -41 -25 -64 -81 -73 -37 -6 -44 -11 -47 -32 -2 -23 8 -30 110 -77
116 -53 187 -73 261 -73 52 0 71 12 64 39 -4 15 3 25 28 40 26 15 32 24 28 41
-9 33 -40 44 -68 26 -40 -27 -89 -20 -132 16 -52 45 -54 49 -49 85 3 23 20 48
54 80 27 27 53 59 57 72 8 27 -11 106 -31 122 -8 6 -14 17 -14 25 0 7 -6 17
-13 21 -8 4 -33 25 -57 45 -50 44 -48 50 33 96 103 59 155 119 173 197 l6 30
18 -40 c9 -22 33 -53 53 -68 39 -30 56 -35 37 -12 -13 16 0 21 15 6 6 -5 21
-12 35 -16 23 -7 24 -7 10 10 -13 17 -13 18 0 13 8 -3 40 -12 70 -21 l55 -16
0 -118 c0 -101 4 -127 25 -183 43 -115 134 -236 208 -278 44 -25 147 -50 228
-56 119 -9 243 -53 303 -108 26 -23 55 -55 65 -70 14 -24 24 -28 60 -28 36 0
47 5 61 26 32 50 103 110 146 126 116 40 150 48 234 54 50 4 103 13 119 20 16
8 35 14 43 14 22 0 80 35 123 74 61 55 105 123 136 211 26 71 29 94 29 198 l0
118 55 16 c30 9 62 18 70 21 13 5 13 3 1 -11 -17 -21 -10 -21 36 -2 44 19 44
19 36 -2 -3 -11 9 -4 30 16 20 19 42 50 48 68 14 43 29 42 29 0 0 -54 82 -150
145 -171 11 -3 38 -21 60 -40 l40 -34 -71 -68 c-55 -55 -73 -79 -84 -117 -11
-43 -11 -53 3 -83 10 -19 33 -44 52 -55 45 -27 66 -88 44 -127 -34 -62 -122
-90 -174 -56 -28 18 -59 7 -68 -26 -4 -17 2 -26 28 -41 25 -15 32 -25 28 -40
-7 -27 12 -39 63 -39 73 0 147 19 234 59 47 22 100 45 118 52 27 10 33 16 30
38 -3 22 -9 27 -53 34 -60 10 -85 30 -85 69 0 22 7 33 31 46 64 35 86 60 103
120 9 32 16 72 16 88 0 17 11 45 26 65 22 29 25 30 18 9 -4 -14 -8 -55 -8 -92
-1 -52 3 -72 20 -94 41 -55 69 -68 162 -75 139 -11 212 -55 212 -129 0 -39
-29 -80 -60 -87 -22 -4 -30 -11 -30 -27 0 -44 31 -61 73 -39 24 12 28 12 33
-2 4 -10 19 -15 44 -15 37 0 40 3 73 62 36 65 45 91 71 193 8 33 18 67 21 76
6 16 -18 49 -34 49 -5 0 -25 -13 -46 -30 -96 -76 -195 -3 -195 145 0 65 11
115 26 115 21 0 108 31 119 42 7 7 3 9 -12 5 -28 -6 -28 -3 -3 33 11 16 22 43
25 62 4 25 3 28 -4 13 -5 -12 -15 -26 -22 -32 -12 -9 -14 2 -15 65 0 43 -4
129 -9 193 -7 110 -7 119 15 164 13 26 30 50 40 52 17 5 46 43 31 43 -5 0 -14
-7 -21 -15 -21 -26 -31 -16 -15 15 19 36 43 50 88 50 40 0 101 -38 105 -65 2
-11 12 -31 22 -45 l20 -25 0 23 c0 34 18 17 26 -26 9 -45 44 -108 44 -78 0 17
4 16 31 -10 l32 -29 -7 49 c-5 44 -4 47 10 35 13 -11 12 -4 -5 29 -12 24 -30
46 -39 49 -9 4 -24 14 -32 23 -8 9 -33 27 -54 40 -25 15 -34 26 -26 28 23 8
-71 32 -123 32 -71 0 -117 -27 -150 -91 -15 -30 -30 -71 -34 -92 -6 -38 -17
-39 -26 -2 -3 11 -5 0 -6 -25 0 -25 4 -63 9 -85 5 -22 12 -78 16 -125 6 -76 6
-84 -9 -72 -13 12 -15 6 -14 -55 l2 -68 -31 -3 c-19 -2 -36 3 -44 12 -7 9 -19
16 -27 16 -8 0 -27 7 -41 15 -15 8 -40 20 -57 27 l-30 11 30 7 c26 7 24 8 -17
9 -56 1 -65 20 -10 22 33 1 31 2 -18 11 -61 11 -90 28 -47 28 15 0 27 5 27 10
0 6 -7 10 -15 10 -8 0 -35 9 -59 20 -58 28 -85 82 -68 138 11 37 48 90 56 81
2 -2 -2 -21 -9 -43 l-14 -39 40 39 c27 26 39 47 39 65 0 47 20 44 21 -3 l1
-43 23 49 c13 27 27 78 31 113 6 58 24 80 24 30 1 -21 1 -21 15 3 8 14 14 40
15 58 0 34 15 44 24 15 3 -10 2 7 -1 37 -4 44 -11 62 -36 88 -33 34 -20 45 20
17 20 -14 21 -14 15 8 -4 12 -11 29 -17 38 -16 25 -104 87 -140 99 l-35 11 28
24 27 24 -55 1 c-51 0 -148 16 -245 40 -56 13 -149 12 -163 -2 -7 -7 -12 -25
-12 -40 0 -25 -3 -28 -34 -28 -47 0 -82 -15 -88 -37 -3 -10 -22 -24 -44 -32
-45 -16 -61 -27 -75 -53 -8 -15 -2 -25 32 -58 26 -24 45 -36 49 -30 4 7 39 10
91 8 72 -3 80 -5 59 -14 -80 -36 -97 -45 -113 -56 -14 -11 -19 -11 -26 0 -7
11 -9 11 -14 -2 -7 -19 -89 -22 -132 -6 -17 7 -24 7 -20 0 3 -6 -3 -10 -14
-10 -32 0 -15 -27 25 -40 19 -6 55 -10 81 -9 27 1 59 -3 71 -10 15 -8 53 -12
102 -10 44 2 82 0 86 -3 15 -16 -9 -60 -48 -88 -38 -28 -47 -30 -127 -30 -101
0 -164 24 -225 85 -33 32 -37 42 -34 78 2 33 -1 42 -20 50 -22 10 -30 27 -12
27 5 0 12 11 16 24 6 26 -13 54 -93 131 -24 23 -43 46 -43 52 0 6 -10 17 -22
26 -13 8 -59 49 -103 91 -44 42 -86 76 -95 76 -8 0 -26 -9 -40 -20 -14 -11
-30 -20 -36 -20 -7 0 -31 -9 -55 -20 -58 -26 -189 -28 -245 -3 l-39 17 85 7
c47 4 112 17 145 29 33 12 67 23 76 26 17 6 104 159 122 216 9 28 18 38 37 40
20 2 25 8 25 33 0 25 -4 30 -28 33 -24 3 -28 -1 -33 -28 -7 -32 -58 -80 -86
-80 -8 0 -23 9 -32 19 -23 25 -12 109 16 129 11 8 18 23 16 35 -2 18 -10 22
-38 22 -31 0 -35 -3 -38 -28 -3 -25 -23 -55 -70 -103 -29 -30 -62 -2 -69 59
-5 42 -3 50 21 72 32 29 33 49 4 69 -30 21 -61 20 -81 -2 -20 -22 -21 -36 -5
-61 10 -16 7 -26 -16 -59 -15 -22 -35 -43 -43 -47 -27 -10 -60 32 -83 106 -20
62 -21 71 -8 87 26 30 28 50 7 76 -25 32 -77 35 -102 8z m243 -357 c39 -8 92
-24 118 -34 26 -10 62 -25 81 -32 50 -19 20 -23 -36 -6 -190 60 -497 60 -709
1 -93 -26 -100 -16 -13 17 83 31 109 40 169 54 78 18 302 18 390 0z m-156 -71
c8 -22 -11 -54 -33 -54 -25 0 -53 33 -45 54 8 21 70 22 78 0z m-124 -9 c15
-18 -2 -45 -30 -45 -23 0 -34 28 -19 46 15 18 33 18 49 -1z m219 1 c15 -18 4
-46 -19 -46 -28 0 -45 27 -30 45 16 19 34 19 49 1z m-341 -5 c21 -13 10 -46
-16 -49 -17 -3 -22 1 -22 21 0 35 13 45 38 28z m450 0 c23 -14 10 -46 -18 -46
-16 0 -26 6 -28 19 -3 16 12 36 28 36 3 0 11 -4 18 -9z m-548 -41 c0 -13 -7
-20 -18 -20 -24 0 -32 8 -25 26 8 22 43 17 43 -6z m653 6 c7 -18 -1 -26 -25
-26 -18 0 -25 20 -11 33 11 12 31 8 36 -7z m-737 -27 c3 -6 1 -16 -4 -21 -13
-13 -45 8 -36 23 7 12 31 11 40 -2z m818 2 c3 -5 0 -13 -7 -19 -15 -13 -42 1
-33 17 9 13 33 15 40 2z m-123 -58 c38 -9 69 -19 69 -23 0 -6 -127 -25 -240
-36 -57 -5 -68 -3 -87 15 -28 27 -63 27 -97 0 -24 -19 -35 -21 -89 -15 -131
13 -237 30 -237 37 0 4 26 13 58 19 31 7 62 14 67 15 6 2 117 4 249 4 190 1
252 -2 307 -16z m-282 -107 c7 -8 45 -31 86 -51 75 -37 75 -37 187 -33 99 3
120 7 169 31 31 15 62 27 70 27 14 0 180 -155 253 -237 l38 -43 -23 -37 c-13
-21 -25 -40 -28 -43 -10 -9 -50 -143 -56 -187 -10 -82 12 -190 78 -368 54
-149 48 -283 -21 -435 -36 -79 -78 -123 -168 -177 -65 -38 -75 -41 -169 -46
-55 -3 -118 -11 -140 -17 -22 -7 -56 -16 -75 -22 -49 -13 -172 -98 -186 -126
-24 -49 -31 -48 -86 9 -29 30 -78 69 -109 86 -65 39 -204 72 -301 73 -37 0
-80 5 -95 12 -39 17 -163 98 -163 107 0 4 -8 16 -19 27 -10 12 -34 63 -52 115
-30 84 -34 105 -34 199 0 82 5 118 21 165 12 33 27 79 33 103 6 23 16 59 21
80 32 118 33 227 4 305 -8 20 -14 46 -14 57 0 11 -14 42 -30 69 l-31 50 37 48
c47 63 225 233 243 233 8 0 39 -12 70 -27 49 -25 70 -28 170 -31 l113 -4 85
43 c46 23 86 46 89 51 8 12 20 10 33 -6z m-1285 -156 c34 -13 33 -30 -1 -30
-27 1 -63 20 -63 34 0 9 35 7 64 -4z m2586 0 c0 -14 -35 -30 -64 -30 -32 0
-34 17 -3 30 30 12 67 12 67 0z m-2565 -238 c-9 -10 -77 13 -85 29 -9 16 -6
16 39 -4 27 -12 48 -23 46 -25z m2570 29 c-11 -11 -38 -22 -60 -26 l-40 -6 50
24 c61 31 76 33 50 8z m-2108 -268 c-6 -121 -44 -245 -80 -265 -36 -19 -152
24 -186 70 -12 15 -26 34 -33 42 -7 8 -25 31 -40 52 -17 22 -41 41 -60 47
l-33 9 30 1 c17 0 50 -4 75 -9 60 -12 215 -1 238 17 15 12 13 13 -17 7 -46 -9
-32 10 24 31 39 16 42 19 29 33 -14 13 -12 18 12 43 15 16 32 29 37 29 6 0 8
-42 4 -107z m1600 85 c25 -23 31 -58 11 -58 -7 -1 8 -12 35 -26 55 -29 60 -39
15 -30 -29 5 -31 4 -16 -8 23 -17 191 -28 243 -16 22 5 54 9 70 9 l30 -1 -29
-8 c-33 -10 -66 -38 -66 -56 0 -20 -90 -113 -124 -129 -54 -24 -105 -37 -123
-31 -33 11 -76 157 -81 274 -3 56 -1 102 4 102 4 0 18 -10 31 -22z"/>
<path d="M3400 3252 c-8 -4 -33 -19 -55 -33 -100 -65 -355 -61 -435 7 -13 11
-28 2 -100 -66 -127 -120 -133 -126 -157 -158 l-22 -29 25 -53 c58 -120 68
-160 68 -265 0 -85 -5 -115 -33 -200 -51 -155 -73 -270 -67 -345 5 -76 40
-215 62 -248 33 -50 96 -102 165 -136 60 -30 84 -36 138 -37 86 -1 164 -13
226 -35 54 -19 172 -101 193 -134 17 -27 29 -25 46 8 8 15 31 37 50 47 20 11
36 22 36 25 0 11 60 41 122 60 34 10 116 23 181 29 101 8 124 13 157 35 22 14
44 26 50 26 14 0 113 103 126 131 6 13 22 56 35 94 30 88 33 235 8 305 -77
209 -93 274 -93 375 0 78 5 112 21 155 28 71 52 121 71 142 13 15 11 20 -14
48 -16 18 -42 44 -57 58 -16 15 -63 61 -106 103 l-77 76 -45 -22 c-125 -63
-319 -57 -427 11 -53 35 -65 38 -92 26z m125 -538 c57 -23 92 -28 99 -15 4 6
16 11 27 11 15 0 19 -7 19 -37 0 -21 3 -68 7 -105 6 -68 6 -68 -20 -68 -21 0
-28 7 -38 38 -6 20 -32 63 -56 95 l-44 57 -94 0 -93 0 -51 -57 c-58 -65 -81
-128 -81 -222 0 -95 30 -167 92 -224 76 -69 153 -85 236 -47 l42 19 0 73 c0
82 -7 91 -74 103 -26 5 -36 12 -36 26 0 18 10 19 145 19 133 0 145 -1 145 -18
0 -11 -14 -25 -35 -35 l-35 -17 0 -90 0 -90 -27 -5 c-16 -3 -53 -13 -83 -21
-71 -20 -236 -15 -300 10 -55 21 -143 110 -161 163 -8 22 -13 79 -13 133 0
106 17 159 59 192 14 11 25 25 25 32 0 15 53 56 72 56 8 0 38 9 68 20 66 23
150 25 205 4z"/>
<path d="M6498 1255 c-26 -57 47 -114 147 -115 91 0 162 60 136 116 -22 49
-78 19 -66 -36 6 -26 3 -31 -20 -40 -34 -13 -91 -13 -116 1 -16 8 -19 17 -14
40 12 55 -44 84 -67 34z"/>
<path d="M3696 1079 c-25 -21 -44 -54 -66 -112 -34 -91 -66 -127 -111 -127
l-30 0 3 108 3 107 33 10 c17 5 32 15 32 22 0 10 -28 13 -115 13 -88 0 -115
-3 -115 -13 0 -7 16 -19 35 -26 l35 -12 0 -223 c0 -235 -2 -246 -47 -246 -14
0 -23 -6 -23 -15 0 -12 19 -15 115 -15 90 0 115 3 115 14 0 7 -15 17 -32 22
l-33 10 -3 107 -3 107 34 0 c40 0 80 -28 104 -73 27 -50 73 -160 73 -174 0
-10 22 -13 80 -13 64 0 80 3 80 15 0 9 -9 15 -22 15 -38 0 -51 15 -98 112 -43
86 -77 125 -121 140 -6 2 2 29 20 63 17 33 42 87 56 120 l26 60 25 -33 c37
-46 84 -39 84 13 0 59 -79 73 -134 24z"/>
<path d="M4585 1094 c-61 -21 -110 -68 -142 -132 -24 -49 -28 -68 -27 -142 0
-103 24 -161 90 -218 90 -80 219 -83 303 -6 45 40 76 95 59 105 -7 5 -23 -11
-39 -36 -34 -53 -65 -75 -117 -82 -57 -8 -107 12 -146 58 -43 51 -61 115 -59
207 1 59 7 85 30 130 37 75 69 97 139 97 47 0 58 -4 85 -31 17 -18 39 -56 49
-85 11 -31 25 -55 34 -57 14 -3 16 11 16 97 0 93 -2 101 -19 101 -11 0 -21 -5
-23 -12 -3 -8 -18 -7 -53 5 -58 20 -125 21 -180 1z"/>
<path d="M80 1086 c0 -7 15 -17 33 -22 l32 -10 3 -223 c3 -237 0 -251 -44
-251 -15 0 -24 -6 -24 -15 0 -12 20 -15 120 -15 96 0 120 3 120 14 0 8 -16 18
-37 23 l-38 9 -3 237 -2 237 76 0 c75 0 78 -1 109 -35 19 -19 36 -48 40 -65 4
-16 13 -30 21 -30 11 0 14 18 14 80 l0 80 -210 0 c-170 0 -210 -3 -210 -14z"/>
<path d="M550 1086 c0 -7 15 -17 33 -22 l32 -10 5 -209 c3 -116 2 -220 -2
-233 -5 -14 -18 -25 -38 -28 -16 -4 -30 -13 -30 -20 0 -11 25 -14 120 -14 100
0 120 3 120 15 0 8 -9 15 -21 15 -11 0 -29 5 -40 10 -17 9 -19 22 -19 105 l0
95 48 0 c71 0 120 18 165 59 37 35 41 43 45 98 4 56 2 62 -28 96 -42 49 -78
57 -247 57 -114 0 -143 -3 -143 -14z m290 -44 c35 -35 47 -90 31 -143 -15 -48
-47 -71 -112 -77 l-49 -5 0 127 0 126 51 0 c42 0 55 -5 79 -28z"/>
<path d="M1250 1075 c-59 -154 -185 -454 -197 -467 -8 -9 -27 -20 -42 -23 -15
-3 -28 -12 -28 -20 0 -12 20 -15 104 -15 85 0 103 3 103 15 0 8 -7 15 -15 15
-8 0 -26 5 -40 12 -22 10 -25 16 -19 42 3 17 13 48 21 69 l15 37 98 0 98 0 27
-67 c25 -63 26 -68 9 -80 -10 -7 -26 -13 -36 -13 -10 0 -18 -7 -18 -15 0 -12
19 -15 115 -15 88 0 115 3 115 13 0 7 -15 19 -34 25 -38 14 -34 5 -160 322
-76 191 -96 218 -116 165z m43 -198 c20 -51 37 -96 37 -100 0 -4 -36 -7 -80
-7 -44 0 -80 3 -80 7 0 16 74 193 80 193 4 0 23 -42 43 -93z"/>
<path d="M1580 1087 c0 -7 16 -19 35 -26 l35 -12 -2 -227 -3 -227 -32 -10
c-18 -5 -33 -15 -33 -22 0 -10 28 -13 115 -13 93 0 115 3 115 14 0 8 -14 17
-30 21 -42 9 -50 30 -50 139 l0 96 135 0 135 0 0 -104 c0 -114 -9 -136 -56
-136 -15 0 -24 -6 -24 -15 0 -12 19 -15 115 -15 90 0 115 3 115 14 0 7 -15 17
-32 22 l-33 10 0 229 0 229 33 10 c17 5 32 15 32 22 0 11 -25 14 -115 14 -93
0 -115 -3 -115 -14 0 -8 14 -17 30 -21 42 -9 50 -31 50 -129 l0 -86 -135 0
-135 0 0 90 c0 77 3 93 20 110 11 11 29 20 40 20 11 0 20 7 20 15 0 12 -19 15
-115 15 -88 0 -115 -3 -115 -13z"/>
<path d="M2280 1086 c0 -8 16 -18 37 -23 52 -12 60 -40 45 -148 -13 -89 -59
-233 -95 -297 -16 -30 -27 -38 -49 -38 l-28 0 0 -80 c0 -62 3 -80 14 -80 8 0
19 14 25 32 6 17 23 46 37 65 l25 33 173 0 c195 0 188 3 226 -83 33 -74 50
-63 50 32 l0 80 -37 3 -38 3 0 235 0 234 33 10 c17 5 32 15 32 22 0 11 -42 14
-225 14 -186 0 -225 -2 -225 -14z m288 -258 l-3 -243 -132 -3 c-73 -1 -133 -1
-133 2 0 2 11 28 24 57 36 79 75 220 81 297 3 37 8 82 11 100 l5 32 75 0 74 0
-2 -242z"/>
<path d="M2810 1087 c0 -7 16 -19 35 -26 l35 -12 -2 -227 -3 -226 -32 -10
c-18 -5 -33 -15 -33 -22 0 -11 31 -14 153 -14 143 0 156 2 203 25 27 13 57 38
67 54 21 36 22 102 2 141 -15 29 -79 70 -110 70 -27 0 -16 14 25 33 47 22 70
60 70 115 0 44 -25 77 -76 98 -46 19 -334 20 -334 1z m268 -23 c27 -8 52 -52
52 -93 0 -72 -44 -111 -125 -111 l-45 0 0 105 0 105 48 0 c26 0 57 -3 70 -6z
m48 -265 c51 -52 40 -163 -20 -200 -41 -25 -100 -25 -126 1 -17 17 -20 33 -20
126 l0 106 70 -4 c59 -3 74 -8 96 -29z"/>
<path d="M3840 1085 c0 -8 11 -17 24 -21 38 -9 58 -38 154 -218 67 -125 88
-174 82 -185 -14 -23 -32 -44 -54 -61 -16 -13 -21 -11 -45 19 -23 28 -32 33
-54 27 -41 -10 -48 -53 -13 -83 69 -59 162 -3 230 141 14 28 56 117 94 197 65
137 72 148 106 160 20 7 36 19 36 26 0 10 -26 13 -106 13 -77 0 -105 -3 -102
-12 2 -6 20 -17 39 -23 19 -7 35 -18 37 -26 3 -17 -103 -264 -114 -264 -6 0
-154 270 -154 281 0 2 16 6 35 10 20 3 35 12 35 20 0 11 -24 14 -115 14 -95 0
-115 -3 -115 -15z"/>
<path d="M4930 1087 c0 -7 16 -19 35 -26 l35 -12 -2 -227 -3 -227 -32 -10
c-18 -5 -33 -15 -33 -22 0 -10 28 -13 115 -13 93 0 115 3 115 14 0 8 -14 17
-30 21 -42 9 -50 30 -50 139 l0 96 136 0 136 0 -4 -110 c-3 -118 -8 -130 -55
-130 -14 0 -23 -6 -23 -15 0 -12 19 -15 115 -15 90 0 115 3 115 14 0 7 -15 17
-32 22 l-33 10 0 229 0 229 33 10 c17 5 32 15 32 22 0 11 -25 14 -115 14 -93
0 -115 -3 -115 -14 0 -8 14 -17 30 -21 42 -9 50 -31 50 -129 l0 -86 -135 0
-135 0 0 90 c0 77 3 93 20 110 11 11 29 20 40 20 11 0 20 7 20 15 0 12 -19 15
-115 15 -88 0 -115 -3 -115 -13z"/>
<path d="M5580 1087 c0 -7 15 -20 33 -28 l32 -14 0 -225 0 -224 -32 -10 c-18
-5 -33 -15 -33 -22 0 -11 31 -14 153 -14 166 0 207 11 255 63 27 29 44 90 35
127 -20 87 -74 120 -205 128 l-88 5 0 74 c0 87 9 109 50 118 16 4 30 13 30 21
0 11 -22 14 -115 14 -89 0 -115 -3 -115 -13z m285 -261 c59 -25 82 -106 51
-181 -17 -40 -60 -65 -115 -65 -61 0 -71 22 -71 152 l0 108 50 0 c28 0 66 -6
85 -14z"/>
<path d="M6040 1086 c0 -8 14 -17 30 -21 17 -4 35 -15 40 -25 6 -11 10 -107
10 -224 0 -222 -3 -236 -56 -236 -15 0 -24 -6 -24 -15 0 -12 19 -15 115 -15
90 0 115 3 115 14 0 7 -15 17 -32 22 l-33 10 0 229 0 229 33 10 c17 5 32 15
32 22 0 11 -25 14 -115 14 -93 0 -115 -3 -115 -14z"/>
<path d="M6350 1088 c0 -7 15 -20 33 -28 l32 -15 3 -219 c3 -232 0 -246 -44
-246 -15 0 -24 -6 -24 -15 0 -12 19 -15 115 -15 87 0 115 3 115 13 0 7 -14 17
-32 22 -66 20 -62 30 83 211 l134 168 3 -179 c2 -160 1 -181 -15 -192 -9 -7
-27 -13 -40 -13 -14 0 -23 -6 -23 -15 0 -12 19 -15 115 -15 90 0 115 3 115 14
0 7 -15 17 -32 22 l-33 10 0 229 0 229 33 10 c17 5 32 15 32 22 0 11 -25 14
-115 14 -93 0 -115 -3 -115 -14 0 -8 13 -17 29 -21 36 -8 56 -29 44 -48 -4 -8
-64 -84 -133 -170 l-125 -156 -3 162 c-1 89 0 172 3 184 4 16 15 24 40 29 20
3 35 12 35 20 0 11 -24 14 -115 14 -85 0 -115 -3 -115 -12z"/>
</g>
</svg>
